<svg width="600" height="360" viewBox="0 0 600 360" fill="none" xmlns="http://www.w3.org/2000/svg">
  <rect width="600" height="360" rx="8" fill="#111"/>
  <rect x="0" y="0" width="600" height="32" rx="8" fill="#1e1e1e"/>
  <circle cx="18" cy="16" r="5" fill="#E53935"/>
  <circle cx="34" cy="16" r="5" fill="#555"/>
  <circle cx="50" cy="16" r="5" fill="#555"/>
  <rect x="200" y="10" width="200" height="12" rx="6" fill="#151515"/>

  <!-- Table header -->
  <rect x="24" y="48" width="552" height="28" rx="4" fill="#1e1e1e"/>
  <text x="40" y="66" font-family="Inter, sans-serif" font-size="11" font-weight="600" fill="#a6a6a6">ID</text>
  <text x="100" y="66" font-family="Inter, sans-serif" font-size="11" font-weight="600" fill="#a6a6a6">NAME</text>
  <text x="260" y="66" font-family="Inter, sans-serif" font-size="11" font-weight="600" fill="#a6a6a6">EMAIL</text>
  <text x="460" y="66" font-family="Inter, sans-serif" font-size="11" font-weight="600" fill="#a6a6a6">STATUS</text>

  <!-- Row 1 -->
  <text x="40" y="98" font-family="monospace" font-size="12" fill="#e5e5e5">1</text>
  <text x="100" y="98" font-family="Inter, sans-serif" font-size="12" fill="#e5e5e5">John Doe</text>
  <text x="260" y="98" font-family="Inter, sans-serif" font-size="12" fill="#a6a6a6">john@example.com</text>
  <rect x="460" y="86" width="52" height="18" rx="9" fill="#4caf50" opacity="0.2"/>
  <text x="470" y="99" font-family="Inter, sans-serif" font-size="10" fill="#4caf50">Active</text>
  <rect x="24" y="110" width="552" height="1" fill="#1e1e1e"/>

  <!-- Row 2 -->
  <text x="40" y="132" font-family="monospace" font-size="12" fill="#e5e5e5">2</text>
  <text x="100" y="132" font-family="Inter, sans-serif" font-size="12" fill="#e5e5e5">Jane Smith</text>
  <text x="260" y="132" font-family="Inter, sans-serif" font-size="12" fill="#a6a6a6">jane@example.com</text>
  <rect x="460" y="120" width="52" height="18" rx="9" fill="#4caf50" opacity="0.2"/>
  <text x="470" y="133" font-family="Inter, sans-serif" font-size="10" fill="#4caf50">Active</text>
  <rect x="24" y="144" width="552" height="1" fill="#1e1e1e"/>

  <!-- Row 3 -->
  <text x="40" y="166" font-family="monospace" font-size="12" fill="#e5e5e5">3</text>
  <text x="100" y="166" font-family="Inter, sans-serif" font-size="12" fill="#e5e5e5">Bob Wilson</text>
  <text x="260" y="166" font-family="Inter, sans-serif" font-size="12" fill="#a6a6a6">bob@example.com</text>
  <rect x="460" y="154" width="60" height="18" rx="9" fill="#ff9800" opacity="0.2"/>
  <text x="468" y="167" font-family="Inter, sans-serif" font-size="10" fill="#ff9800">Inactive</text>
  <rect x="24" y="178" width="552" height="1" fill="#1e1e1e"/>

  <!-- Row 4 -->
  <text x="40" y="200" font-family="monospace" font-size="12" fill="#e5e5e5">4</text>
  <text x="100" y="200" font-family="Inter, sans-serif" font-size="12" fill="#e5e5e5">Alice Chen</text>
  <text x="260" y="200" font-family="Inter, sans-serif" font-size="12" fill="#a6a6a6">alice@example.com</text>
  <rect x="460" y="188" width="52" height="18" rx="9" fill="#4caf50" opacity="0.2"/>
  <text x="470" y="201" font-family="Inter, sans-serif" font-size="10" fill="#4caf50">Active</text>

  <!-- Query bar -->
  <rect x="24" y="240" width="552" height="1" fill="#333"/>
  <rect x="24" y="260" width="552" height="60" rx="6" fill="#1e1e1e"/>
  <text x="40" y="280" font-family="monospace" font-size="12" fill="#E53935">SELECT</text>
  <text x="92" y="280" font-family="monospace" font-size="12" fill="#e5e5e5"> * </text>
  <text x="116" y="280" font-family="monospace" font-size="12" fill="#E53935">FROM</text>
  <text x="156" y="280" font-family="monospace" font-size="12" fill="#e5e5e5"> users </text>
  <text x="210" y="280" font-family="monospace" font-size="12" fill="#E53935">WHERE</text>
  <text x="260" y="280" font-family="monospace" font-size="12" fill="#e5e5e5"> status = 'active'</text>
  <text x="40" y="302" font-family="Inter, sans-serif" font-size="11" fill="#555">4 rows returned in 0.023s</text>
</svg>
